<svg xmlns="http://www.w3.org/2000/svg" xmlns:xlink="http://www.w3.org/1999/xlink" width="1280" height="720" viewBox="0 0 1280 720">
  <rect x="0" y="0" width="1280" height="720" fill="#FFFFFF"/>
  <image x="1048" y="28" width="168" height="50" xlink:href="logo.png" preserveAspectRatio="xMidYMid meet"/>
  <line x1="72" y1="0" x2="72" y2="720" stroke="#DDDDDD" stroke-width="2"/>
  <text x="40" y="625" font-family="Arial, Microsoft YaHei, sans-serif" font-size="10" fill="#515151" transform="rotate(-90 40 625)">© GOLDWIND SCIENCE &amp; TECHNOLOGY CO., LTD.</text>
  <rect x="1204" y="620" width="76" height="18" fill="#515151"/>
  <rect x="1204" y="638" width="76" height="18" fill="#F1F1F1"/>
  <rect x="1204" y="656" width="76" height="24" fill="#848484"/>
  <text x="1242" y="675" text-anchor="middle" font-family="Arial, Microsoft YaHei, sans-serif" font-size="13" font-weight="bold" fill="#FFFFFF">{{PAGE_NUM}}</text>
  <line x1="0" y1="84" x2="328" y2="84" stroke="#A6A9AC" stroke-width="2"/>
  <text x="84" y="66" font-family="Arial, Microsoft YaHei, sans-serif" font-size="32" font-weight="bold" fill="#063360">{{SECTION_NUM}}</text>
  <text x="138" y="66" font-family="Arial, Microsoft YaHei, sans-serif" font-size="32" font-weight="bold" fill="#063360">「{{PAGE_TITLE}}」</text>
  <rect x="76" y="112" width="1140" height="96" fill="#E9EAEB"/>
  <text x="104" y="156" font-family="Microsoft YaHei, Arial, sans-serif" font-size="20" font-weight="bold" fill="#515151">➢ {{KEY_MESSAGE}}</text>
  <rect x="76" y="244" width="1140" height="360" fill="#FFFFFF" stroke="#DDDDDD" stroke-width="1"/>
  <rect x="76" y="244" width="1140" height="34" fill="#034F75"/>
  <text x="104" y="268" font-family="Arial, Microsoft YaHei, sans-serif" font-size="16" font-weight="bold" fill="#FFFFFF">{{PAGE_TITLE}}</text>
  <rect x="96" y="302" width="1100" height="274" fill="#F8F8F8" stroke="#DDDDDD" stroke-width="1" stroke-dasharray="8 6"/>
  <text x="646" y="430" text-anchor="middle" font-family="Microsoft YaHei, Arial, sans-serif" font-size="22" fill="#848484">{{CONTENT_AREA}}</text>
  <text x="84" y="700" font-family="Microsoft YaHei, Arial, sans-serif" font-size="11" fill="#A6A9AC">{{SOURCE}}</text>
</svg>
